<?xml version="1.0" encoding="UTF-8" standalone="no"?>
<svg
   xmlns:dc="http://purl.org/dc/elements/1.1/"
   xmlns:cc="http://creativecommons.org/ns#"
   xmlns:rdf="http://www.w3.org/1999/02/22-rdf-syntax-ns#"
   xmlns:svg="http://www.w3.org/2000/svg"
   xmlns="http://www.w3.org/2000/svg"
   xmlns:sodipodi="http://sodipodi.sourceforge.net/DTD/sodipodi-0.dtd"
   xmlns:inkscape="http://www.inkscape.org/namespaces/inkscape"
   id="svg1273"
   version="1.0"
   width="16"
   height="16"
   sodipodi:docname="3mf.svg"
   inkscape:version="0.92.3 (2405546, 2018-03-11)">
  <sodipodi:namedview
     pagecolor="#ffffff"
     bordercolor="#666666"
     borderopacity="1"
     objecttolerance="10"
     gridtolerance="10"
     guidetolerance="10"
     inkscape:pageopacity="0"
     inkscape:pageshadow="2"
     inkscape:window-width="1920"
     inkscape:window-height="1172"
     id="namedview5841"
     showgrid="false"
     inkscape:zoom="16"
     inkscape:cx="16.192356"
     inkscape:cy="4.9177436"
     inkscape:window-x="1920"
     inkscape:window-y="0"
     inkscape:window-maximized="1"
     inkscape:current-layer="g1610" />
  <metadata
     id="metadata1279">
    <rdf:RDF>
      <cc:Work
         rdf:about="">
        <dc:format>image/svg+xml</dc:format>
        <dc:type
           rdf:resource="http://purl.org/dc/dcmitype/StillImage" />
        <dc:title></dc:title>
      </cc:Work>
    </rdf:RDF>
  </metadata>
  <defs
     id="defs1277" />
  <path
     fill="#969696"
     id="path1271"
     d="m2.3501 1.0014c-0.19751 0.0382-0.35351 0.23331-0.35001 0.43742v13.123c0.000005 0.22905 0.20523 0.43745 0.43079 0.43746l11.139 0.001c0.22556-0.000006 0.43078-0.20841 0.43079-0.43746v-10.143c-0.004-0.06684-0.022-0.13284-0.054-0.19135l-3.3121-3.1989c-0.043-0.0164-0.088-0.0256-0.134-0.0274l-8.0699-0.001c-0.02684-0.0026-0.05393-0.0026-0.08077 0z"
     style="color:#000000;block-progression:tb;text-transform:none;text-indent:0" />
  <rect
     ry="0.30935922"
     y="10.718796"
     x="2.3864853"
     height="3.8448932"
     width="11.159028"
     id="rect5688"
     style="opacity:0.98999999;fill:#ffffff;fill-opacity:1;stroke:#ffffff;stroke-width:0.18897638;stroke-miterlimit:4;stroke-dasharray:none;stroke-dashoffset:0;stroke-opacity:1" />
  <text
     id="text4990"
     y="13.988739"
     x="4.5227165"
     style="font-style:normal;font-variant:normal;font-weight:bold;font-stretch:normal;font-size:3.75053215px;line-height:1.25;font-family:'Nunito Sans';-inkscape-font-specification:'Nunito Sans, Bold';font-variant-ligatures:normal;font-variant-caps:normal;font-variant-numeric:normal;font-feature-settings:normal;text-align:start;letter-spacing:0px;word-spacing:0px;writing-mode:lr-tb;text-anchor:start;fill:#24aae1;fill-opacity:1;stroke:none;stroke-width:0.09376255;"
     xml:space="preserve"><tspan
       style="font-style:normal;font-variant:normal;font-weight:bold;font-stretch:normal;font-size:3.75053215px;font-family:'Nunito Sans';-inkscape-font-specification:'Nunito Sans, Bold';font-variant-ligatures:normal;font-variant-caps:normal;font-variant-numeric:normal;font-feature-settings:normal;text-align:start;writing-mode:lr-tb;text-anchor:start;fill:#24aae1;fill-opacity:1;stroke-width:0.09376255;"
       y="13.988739"
       x="4.5227165"
       id="tspan4988">3MF</tspan></text>
  <g
     id="g1610"
     transform="matrix(0.81293768,0,0,0.81293768,-18.297649,1.0028474)">
    <path
       style="fill:#24aae1;stroke-width:0.041843;stroke:none;stroke-opacity:1;stroke-miterlimit:4;stroke-dasharray:none"
       d="M 34.300383,10.149622 C 34.289243,10.116465 34.168812,9.5548707 34.03276,8.9016341 33.607306,6.8588716 33.054563,4.2354308 32.817457,3.1335379 32.692215,2.5515058 32.597871,2.0671712 32.607803,2.0572387 c 0.0099,-0.00993 0.166015,0.2359022 0.34685,0.5462992 2.024085,3.4742705 2.803015,4.8173768 2.820995,4.8642313 0.01902,0.049572 -0.549708,1.151763 -0.698941,1.354535 -0.131013,0.1780166 -0.107854,-0.070529 0.05763,-0.6184991 0.0931,-0.3082798 0.158839,-0.5709415 0.146087,-0.5836929 -0.01275,-0.012752 -0.246513,-1.639e-4 -0.519472,0.027963 -0.360377,0.037141 -0.508602,0.038833 -0.541255,0.00618 -0.08651,-0.086511 0.0348,-0.1738404 0.500165,-0.3600509 0.25483,-0.101968 0.472951,-0.2104753 0.484713,-0.2411275 0.02654,-0.069153 -1.667639,-2.6519394 -1.710112,-2.6070826 -0.03168,0.033462 0.750231,4.7458726 0.794875,4.7905163 0.01373,0.013731 0.120006,-0.014532 0.236168,-0.062807 0.116161,-0.048274 0.23639,-0.087772 0.267174,-0.087772 0.105894,0 0.05548,0.1766036 -0.168314,0.5895458 -0.296585,0.5472677 -0.298481,0.5500417 -0.323984,0.4741437 z m 0.589224,-2.5618735 c 0.168941,-0.01565 0.346221,-0.042971 0.393956,-0.060713 0.115148,-0.042796 0.147522,-0.2228733 0.05959,-0.3314637 -0.06815,-0.084162 -0.06924,-0.083923 -0.575725,0.1256905 -0.279094,0.1155065 -0.515064,0.2176314 -0.524376,0.2269438 -0.0093,0.00931 -0.0036,0.038573 0.01279,0.065023 0.01846,0.029873 0.08596,0.039546 0.178161,0.025533 0.08164,-0.012408 0.286663,-0.035364 0.455603,-0.051014 z M 33.456173,10.029927 C 33.309758,9.9900553 32.619016,9.8061674 31.921191,9.6212867 31.223367,9.436406 30.629003,9.2657064 30.600384,9.2419544 c -0.0671,-0.055686 -0.06774,-0.2378379 -8.41e-4,-0.2382384 0.02816,-1.638e-4 0.748415,0.065915 1.600573,0.1468513 0.852159,0.080937 1.558178,0.1383591 1.568932,0.1276055 C 33.779801,9.2674192 33.537115,8.5240384 33.229745,7.6262153 32.922376,6.7283922 32.5419,5.61139 32.384243,5.143988 32.226586,4.676586 32.078522,4.2941661 32.055211,4.2941661 c -0.06716,0 -3.602338,3.4913366 -3.566422,3.5221927 0.01775,0.015249 0.824758,-0.00457 1.79335,-0.044037 2.505604,-0.1021015 2.67286,-0.1049614 2.731122,-0.046699 0.03131,0.031314 0.03533,0.063774 0.01083,0.087621 -0.0214,0.020834 -0.536514,0.095444 -1.1447,0.1658005 -0.608186,0.070357 -1.472873,0.1731048 -1.921527,0.2283297 -0.448654,0.055225 -0.840289,0.1004088 -0.8703,0.1004088 -0.138868,0 -0.02123,0.095435 0.357316,0.2898827 0.409117,0.2101488 0.584294,0.3685356 0.500396,0.4524337 -0.02852,0.028524 -0.294824,-0.025353 -0.835432,-0.1690212 -0.436459,-0.1159903 -0.937222,-0.2486006 -1.112807,-0.2946892 -0.175585,-0.046088 -0.310963,-0.09208 -0.30084,-0.1022026 0.01012,-0.010123 0.347297,0.067039 0.749276,0.1714711 0.622584,0.1617442 0.878135,0.2312543 1.375915,0.3742509 0.0511,0.014678 0.07167,-0.00274 0.07167,-0.060675 0,-0.061823 -0.113257,-0.1415738 -0.473413,-0.3333575 -0.266111,-0.1417036 -0.466475,-0.2732159 -0.457567,-0.3003316 0.01722,-0.052416 0.296314,-0.091447 2.548152,-0.35636 0.788081,-0.092712 1.441112,-0.1768063 1.451182,-0.186876 0.07445,-0.074455 -0.323371,-0.073279 -2.290204,0.00677 -1.281055,0.052137 -2.248258,0.075543 -2.270075,0.054937 -0.03312,-0.031284 0.757883,-0.8239459 3.152771,-3.1593741 0.443683,-0.4326669 0.518938,-0.4850595 0.572424,-0.3985182 0.0433,0.070065 1.698436,4.9262686 1.698436,4.9832537 0,0.07047 0.02015,0.07156 -1.679166,-0.090773 -0.822177,-0.078541 -1.509971,-0.1429864 -1.528432,-0.143212 -0.01846,-2.458e-4 -0.02768,0.040868 -0.02048,0.091321 0.01163,0.081509 0.07926,0.1090635 0.606939,0.2472744 1.993176,0.5220593 2.709913,0.7202771 2.60066,0.7192261 -0.04505,-4.34e-4 -0.201705,-0.03341 -0.34812,-0.07328 z M 27.681656,8.3648567 c 9.7e-5,-0.020128 0.07044,-0.1287457 0.156317,-0.2413727 0.150422,-0.197277 2.569209,-3.3597733 3.118198,-4.0769586 0.147367,-0.1925159 0.551623,-0.7228185 0.898347,-1.1784503 0.346724,-0.4556318 0.637898,-0.8209313 0.647052,-0.8117766 0.0092,0.00915 -0.291389,0.4196631 -0.667875,0.912241 -0.376487,0.492578 -0.952396,1.2457638 -1.279799,1.6737464 -0.327402,0.4279826 -0.785379,1.0269534 -1.017726,1.3310463 -0.232347,0.3040929 -0.549994,0.7187651 -0.705883,0.9214936 -0.155889,0.2027286 -0.478143,0.6246544 -0.716121,0.9376124 -0.237977,0.3129585 -0.432607,0.5525468 -0.43251,0.5324185 z"
       id="path1614"
       inkscape:connector-curvature="0" />
    <path
       style="fill:#03386a;stroke-width:0.04095527;stroke:none;stroke-opacity:1"
       d="M 33.968114,10.130988 C 33.798551,10.072168 33.009756,9.8586192 31.49032,9.4601789 30.690711,9.2504985 30.608579,9.2208068 30.596694,9.137127 c -0.0072,-0.050682 0.002,-0.091965 0.02048,-0.091739 0.01846,2.457e-4 0.706255,0.064671 1.528432,0.143212 1.69932,0.1623331 1.679166,0.1612437 1.679166,0.090773 0,-0.056985 -1.655134,-4.9131891 -1.698436,-4.9832537 -0.05349,-0.086541 -0.128741,-0.034149 -0.572424,0.3985182 -2.394888,2.3354282 -3.185893,3.1280904 -3.152771,3.1593741 0.02182,0.020607 0.98902,-0.0028 2.270075,-0.054937 1.966833,-0.080046 2.364658,-0.081222 2.290204,-0.00677 -0.01007,0.01007 -0.663101,0.094164 -1.451182,0.186876 -2.251838,0.2649131 -2.530933,0.3039442 -2.548152,0.35636 -0.0089,0.027116 0.191456,0.158628 0.457567,0.3003316 0.360156,0.1917837 0.473413,0.2715343 0.473413,0.3333575 0,0.058145 -0.02039,0.075249 -0.07167,0.060122 -0.33255,-0.098095 -0.92455,-0.2575118 -1.519295,-0.4091196 -0.471427,-0.1201722 -0.690815,-0.1928571 -0.652133,-0.2160562 0.03206,-0.019228 0.324866,-0.3851279 0.650677,-0.8131104 0.325811,-0.4279826 0.74097,-0.9716639 0.922574,-1.2081805 0.181604,-0.2365167 0.583418,-0.7617681 0.892919,-1.1672253 0.309502,-0.4054572 0.961858,-1.2581568 1.44968,-1.894888 0.487823,-0.6367312 0.905143,-1.1942348 0.927379,-1.2388969 0.08073,-0.1621614 0.01672,-0.4261477 0.799633,3.297606 0.222588,1.0586938 0.5345,2.5422985 0.693136,3.2968994 0.158637,0.7546008 0.296118,1.4042538 0.305515,1.4436728 0.0211,0.0885 -0.08903,0.09222 -0.323367,0.01093 z M 34.255843,7.61323 c -0.01635,-0.026451 -0.0221,-0.055711 -0.01279,-0.065023 0.0093,-0.00931 0.245282,-0.1114373 0.524376,-0.2269438 0.506483,-0.2096136 0.507575,-0.2098524 0.575725,-0.1256905 0.08793,0.1085904 0.05556,0.2886675 -0.05959,0.3314637 -0.04774,0.017741 -0.225015,0.045062 -0.393956,0.060713 -0.16894,0.01565 -0.373961,0.038607 -0.455603,0.051014 -0.0922,0.014013 -0.159698,0.00434 -0.178161,-0.025533 z"
       id="path1612"
       inkscape:connector-curvature="0" />
  </g>
  <g
     id="g1602"
     transform="translate(9.4796506,-0.04419417)" />
  <g
     id="g1572"
     transform="translate(11.559322,0.13559322)" />
  <g
     id="g1556"
     transform="translate(11.355932,0.10169491)" />
</svg>
