<?xml version="1.0" encoding="UTF-8" standalone="no"?>
<svg
   xmlns:dc="http://purl.org/dc/elements/1.1/"
   xmlns:cc="http://creativecommons.org/ns#"
   xmlns:rdf="http://www.w3.org/1999/02/22-rdf-syntax-ns#"
   xmlns:svg="http://www.w3.org/2000/svg"
   xmlns="http://www.w3.org/2000/svg"
   xmlns:sodipodi="http://sodipodi.sourceforge.net/DTD/sodipodi-0.dtd"
   xmlns:inkscape="http://www.inkscape.org/namespaces/inkscape"
   height="16"
   width="16"
   version="1.0"
   id="svg1273"
   sodipodi:docname="app.svg"
   inkscape:version="0.92.3 (2405546, 2018-03-11)">
  <metadata
     id="metadata1279">
    <rdf:RDF>
      <cc:Work
         rdf:about="">
        <dc:format>image/svg+xml</dc:format>
        <dc:type
           rdf:resource="http://purl.org/dc/dcmitype/StillImage" />
        <dc:title></dc:title>
      </cc:Work>
    </rdf:RDF>
  </metadata>
  <defs
     id="defs1277">
    <inkscape:perspective
       sodipodi:type="inkscape:persp3d"
       inkscape:vp_x="-8.4335929 : 3.3362782 : 0"
       inkscape:vp_y="202.86373 : 854.21029 : 0"
       inkscape:vp_z="8.9170841 : 4.7845035 : 0"
       inkscape:persp3d-origin="7.8630065 : 2.6838465 : 1"
       id="perspective5672" />
  </defs>
  <sodipodi:namedview
     pagecolor="#ffffff"
     bordercolor="#666666"
     borderopacity="1"
     objecttolerance="10"
     gridtolerance="10"
     guidetolerance="10"
     inkscape:pageopacity="0"
     inkscape:pageshadow="2"
     inkscape:window-width="1920"
     inkscape:window-height="1025"
     id="namedview1275"
     showgrid="false"
     inkscape:zoom="16"
     inkscape:cx="17.929518"
     inkscape:cy="-0.61312234"
     inkscape:window-x="0"
     inkscape:window-y="27"
     inkscape:window-maximized="1"
     inkscape:current-layer="svg1273" />
  <path
     style="color:#000000;block-progression:tb;text-transform:none;text-indent:0;fill:#ffffff;fill-opacity:1"
     d="M 2.3496094 1.0019531 C 2.1520994 1.0401531 1.9965 1.2353431 2 1.4394531 L 2 14.5625 C 2.000005 14.79155 2.2060806 14.99999 2.4316406 15 L 13.570312 15 C 13.795872 14.999994 13.99999 14.79155 14 14.5625 L 14 4.4199219 C 13.996 4.3530819 13.979266 4.2870256 13.947266 4.2285156 L 10.634766 1.0292969 C 10.591766 1.0128969 10.546 1.0037531 10.5 1.0019531 L 2.4316406 1.0019531 C 2.4048006 0.99935321 2.3764494 0.99935322 2.3496094 1.0019531 z M 6.9746094 3.6425781 A 0.22195896 0.22195896 0 0 1 6.9785156 3.6425781 A 0.22195896 0.22195896 0 0 1 6.9921875 3.6445312 A 0.22195896 0.22195896 0 0 1 7.0800781 3.6699219 A 0.22195896 0.22195896 0 0 1 7.0839844 3.671875 L 12.792969 5.9296875 A 0.22195896 0.22195896 0 0 1 12.802734 5.9335938 L 12.808594 5.9355469 A 0.22195896 0.22195896 0 0 1 12.814453 5.9375 A 0.22195896 0.22195896 0 0 1 12.828125 5.9453125 A 0.22195896 0.22195896 0 0 1 12.833984 5.9472656 A 0.22195896 0.22195896 0 0 1 12.847656 5.9550781 A 0.22195896 0.22195896 0 0 1 12.853516 5.9589844 A 0.22195896 0.22195896 0 0 1 12.865234 5.96875 A 0.22195896 0.22195896 0 0 1 12.871094 5.9726562 A 0.22195896 0.22195896 0 0 1 12.882812 5.984375 A 0.22195896 0.22195896 0 0 1 12.886719 5.9882812 A 0.22195896 0.22195896 0 0 1 12.898438 6 A 0.22195896 0.22195896 0 0 1 12.904297 6.0097656 A 0.22195896 0.22195896 0 0 1 12.910156 6.0175781 A 0.22195896 0.22195896 0 0 1 12.914062 6.0214844 A 0.22195896 0.22195896 0 0 1 12.921875 6.0371094 A 0.22195896 0.22195896 0 0 1 12.931641 6.0546875 A 0.22195896 0.22195896 0 0 1 12.931641 6.0566406 A 0.22195896 0.22195896 0 0 1 12.933594 6.0625 A 0.22195896 0.22195896 0 0 1 12.939453 6.078125 A 0.22195896 0.22195896 0 0 1 12.941406 6.0839844 A 0.22195896 0.22195896 0 0 1 12.945312 6.0996094 A 0.22195896 0.22195896 0 0 1 12.945312 6.1054688 A 0.22195896 0.22195896 0 0 1 12.949219 6.1425781 A 0.22195896 0.22195896 0 0 1 12.949219 6.1484375 A 0.22195896 0.22195896 0 0 1 12.947266 6.1757812 A 0.22195896 0.22195896 0 0 1 12.935547 6.2207031 L 11.660156 11.59375 L 11.658203 11.605469 A 0.22195896 0.22195896 0 0 1 11.654297 11.615234 A 0.22195896 0.22195896 0 0 1 11.652344 11.626953 A 0.22195896 0.22195896 0 0 1 11.648438 11.636719 A 0.22195896 0.22195896 0 0 1 11.644531 11.646484 A 0.22195896 0.22195896 0 0 1 11.638672 11.65625 A 0.22195896 0.22195896 0 0 1 11.632812 11.667969 A 0.22195896 0.22195896 0 0 1 11.628906 11.675781 A 0.22195896 0.22195896 0 0 1 11.621094 11.685547 A 0.22195896 0.22195896 0 0 1 11.615234 11.693359 A 0.22195896 0.22195896 0 0 1 11.607422 11.703125 A 0.22195896 0.22195896 0 0 1 11.599609 11.710938 A 0.22195896 0.22195896 0 0 1 11.591797 11.71875 A 0.22195896 0.22195896 0 0 1 11.583984 11.726562 A 0.22195896 0.22195896 0 0 1 11.574219 11.732422 A 0.22195896 0.22195896 0 0 1 11.566406 11.738281 A 0.22195896 0.22195896 0 0 1 11.556641 11.744141 A 0.22195896 0.22195896 0 0 1 11.546875 11.75 L 8.9277344 13.15625 A 0.22195896 0.22195896 0 0 1 8.9082031 13.166016 A 0.22195896 0.22195896 0 0 1 8.8867188 13.173828 A 0.22195896 0.22195896 0 0 1 8.8652344 13.177734 A 0.22195896 0.22195896 0 0 1 8.8515625 13.179688 A 0.22195896 0.22195896 0 0 1 8.8300781 13.181641 A 0.22195896 0.22195896 0 0 1 8.8203125 13.181641 A 0.22195896 0.22195896 0 0 1 8.8066406 13.181641 A 0.22195896 0.22195896 0 0 1 8.7636719 13.173828 A 0.22195896 0.22195896 0 0 1 8.7558594 13.171875 A 0.22195896 0.22195896 0 0 1 8.7421875 13.166016 L 8.734375 13.164062 A 0.22195896 0.22195896 0 0 1 8.7226562 13.158203 L 8.7148438 13.154297 L 3.0253906 10.904297 A 0.22195896 0.22195896 0 0 1 3.0234375 10.904297 A 0.22195896 0.22195896 0 0 1 2.8535156 10.632812 L 4.1386719 5.2324219 A 0.22195896 0.22195896 0 0 1 4.140625 5.2207031 A 0.22195896 0.22195896 0 0 1 4.1445312 5.2109375 A 0.22195896 0.22195896 0 0 1 4.1464844 5.1992188 A 0.22195896 0.22195896 0 0 1 4.1503906 5.1894531 A 0.22195896 0.22195896 0 0 1 4.1542969 5.1796875 A 0.22195896 0.22195896 0 0 1 4.1601562 5.1699219 A 0.22195896 0.22195896 0 0 1 4.1660156 5.1582031 A 0.22195896 0.22195896 0 0 1 4.1699219 5.1503906 A 0.22195896 0.22195896 0 0 1 4.1777344 5.140625 A 0.22195896 0.22195896 0 0 1 4.1835938 5.1328125 A 0.22195896 0.22195896 0 0 1 4.1855469 5.1308594 A 0.22195896 0.22195896 0 0 1 4.1992188 5.1152344 A 0.22195896 0.22195896 0 0 1 4.2070312 5.1074219 A 0.22195896 0.22195896 0 0 1 4.2148438 5.1015625 A 0.22195896 0.22195896 0 0 1 4.2421875 5.0820312 A 0.22195896 0.22195896 0 0 1 4.2519531 5.0761719 L 6.8710938 3.6699219 A 0.22195896 0.22195896 0 0 1 6.890625 3.6601562 A 0.22195896 0.22195896 0 0 1 6.9042969 3.65625 A 0.22195896 0.22195896 0 0 1 6.9257812 3.6503906 A 0.22195896 0.22195896 0 0 1 6.9335938 3.6484375 A 0.22195896 0.22195896 0 0 1 6.9472656 3.6464844 A 0.22195896 0.22195896 0 0 1 6.953125 3.6445312 A 0.22195896 0.22195896 0 0 1 6.9746094 3.6425781 z M 7.1328125 4.1660156 L 6.7050781 5.9609375 L 10.095703 7.3027344 L 12.201172 6.171875 L 7.1328125 4.1660156 z M 6.6445312 4.296875 L 5.1582031 5.09375 L 4.8847656 5.2402344 L 6.2890625 5.7949219 L 6.6445312 4.296875 z M 4.5136719 5.5703125 L 3.4023438 10.253906 L 4.0410156 9.9121094 L 5.4960938 9.1308594 L 6.1855469 6.2304688 L 4.5136719 5.5703125 z M 6.6015625 6.3964844 L 5.9492188 9.1445312 L 9.1972656 10.429688 L 9.8496094 7.6816406 L 6.6015625 6.3964844 z M 12.396484 6.5722656 L 10.302734 7.6953125 L 9.6152344 10.595703 L 11.285156 11.255859 L 12.396484 6.5722656 z M 5.703125 9.5234375 L 3.5976562 10.654297 L 8.6660156 12.660156 L 9.09375 10.865234 L 5.703125 9.5234375 z M 9.5117188 11.03125 L 9.15625 12.529297 L 10.914062 11.585938 L 9.5117188 11.03125 z "
     id="path1271" />
</svg>
